<svg width="78" height="78" viewBox="0 0 78 78" fill="none" xmlns="http://www.w3.org/2000/svg">
<path fill-rule="evenodd" clip-rule="evenodd" d="M47.3025 5.72001V0.600006H30.6971V5.72001H36.4398V10.4902C36.3366 10.4996 36.2335 10.5095 36.1305 10.52C30.4955 11.0945 25.3555 13.343 21.2029 16.7621C21.053 16.8855 20.9044 17.0104 20.7571 17.1369L17.3985 13.7783L21.5228 9.65392L17.9024 6.03353L6.03336 17.9026L9.65374 21.523L13.7781 17.3986L17.1367 20.7573C17.0103 20.9045 16.8853 21.0531 16.7619 21.203C13.3428 25.3556 11.0944 30.4957 10.5199 36.1307C10.5094 36.2336 10.4994 36.3367 10.49 36.44H5.71985L5.71985 30.6973H0.599854V47.3027H5.71985L5.71985 41.56H10.49C10.4994 41.6633 10.5094 41.7664 10.5199 41.8693C11.0944 47.5045 13.343 52.6447 16.7623 56.7974C16.8856 56.9471 17.0104 57.0956 17.1367 57.2427L13.778 60.6014L9.65369 56.477L6.0333 60.0974L17.9024 71.9665L21.5228 68.3461L17.3984 64.2218L20.7571 60.8631C20.9042 60.9894 21.0527 61.1143 21.2024 61.2376C25.3551 64.6569 30.4953 66.9054 36.1305 67.48C36.2334 67.4905 36.3366 67.5004 36.4398 67.5098V72.28H30.6971V77.4H47.3025V72.28H41.5598V67.5098C41.6631 67.5004 41.7662 67.4905 41.8692 67.48C47.5042 66.9055 52.6442 64.657 56.7968 61.2379C56.9467 61.1145 57.0953 60.9896 57.2426 60.8631L60.6012 64.2218L56.4769 68.3461L60.0973 71.9665L71.9663 60.0974L68.346 56.477L64.2216 60.6014L60.863 57.2428C60.9894 57.0955 61.1144 56.9469 61.2378 56.797C64.6569 52.6443 66.9053 47.5043 67.4799 41.8693C67.4903 41.7664 67.5003 41.6633 67.5097 41.56H72.2798V47.3027H77.3998V30.6973L72.2798 30.6973V36.44H67.5097C67.5003 36.3367 67.4903 36.2336 67.4799 36.1307C66.9053 30.4954 64.6567 25.3553 61.2374 21.2026C61.1141 21.0529 60.9893 20.9044 60.863 20.7573L64.2217 17.3986L68.346 21.523L71.9664 17.9026L60.0973 6.03351L56.4769 9.6539L60.6013 13.7782L57.2426 17.1369C57.0955 17.0106 56.947 16.8857 56.7972 16.7624C52.6446 13.3431 47.5044 11.0946 41.8692 10.52C41.7662 10.5095 41.6631 10.4996 41.5598 10.4902V5.72001H47.3025ZM38.2361 15.9807C32.1829 16.2329 26.7353 18.7715 22.7425 22.7419C20.9978 24.4963 19.5295 26.5316 18.4102 28.7758C16.8753 31.853 15.9966 35.323 15.961 38.9999C15.9645 39.3671 15.9765 39.7322 15.9967 40.095C16.0767 41.5337 16.286 42.937 16.6128 44.2935C17.6313 48.5196 19.7915 52.2907 22.7425 55.2582C23.6177 56.1285 24.5628 56.93 25.5689 57.6537C29.3448 60.3698 33.9793 61.9902 38.9996 62.0389C39.291 62.0361 39.5811 62.0279 39.8698 62.0146C41.6091 61.9344 43.2978 61.6654 44.9158 61.2279C48.8896 60.1534 52.4367 58.0629 55.2576 55.2578C59.3946 51.0976 61.9772 45.358 62.0387 38.9998C61.9979 34.7944 60.8543 30.8597 58.8875 27.4736C58.6662 27.0925 58.4344 26.7184 58.1926 26.3517C57.3346 25.0501 56.3503 23.8411 55.2576 22.7422C51.3266 18.8332 45.9855 16.312 40.0447 15.9941C39.6984 15.9756 39.3501 15.9645 38.9999 15.9611C38.7442 15.9636 38.4896 15.9702 38.2361 15.9807ZM22.2486 31.9063C19.9194 33.3591 18.6773 36.1758 19.3243 38.9673C19.3293 38.9891 19.3345 39.0109 19.3397 39.0326C19.3523 39.0846 19.3656 39.1366 19.3795 39.1886C19.6866 40.3344 20.278 41.3281 21.0575 42.1141C22.2099 43.2759 23.7733 43.9838 25.4367 44.058C26.0933 44.0873 26.7654 44.0179 27.4339 43.8388C29.5853 43.2623 31.2003 41.6833 31.911 39.7391C32.0754 39.2893 32.1914 38.8201 32.2544 38.3391C32.3633 37.5088 32.3143 36.6437 32.0841 35.7844C31.8694 34.9832 31.5157 34.2564 31.0558 33.623C30.4206 32.748 29.5829 32.0512 28.6294 31.5828C27.2507 30.9054 25.63 30.7054 24.0297 31.1342C23.3844 31.3071 22.7874 31.5702 22.2486 31.9063ZM33.423 29.102C33.2926 30.3436 33.3834 31.6296 33.7259 32.9075C33.9353 33.6893 34.2279 34.4266 34.5914 35.1126C35.0665 36.0088 35.6628 36.8173 36.3534 37.5226C36.588 37.7621 36.8334 37.9896 37.0886 38.2047C39.3139 40.0798 42.2866 41.0039 45.3098 40.5748C45.727 40.5156 46.1452 40.4306 46.5625 40.3188C51.6023 38.9684 54.7952 34.1659 54.279 29.1371C54.2225 28.5867 54.1216 28.0337 53.9738 27.4821C53.7396 26.608 53.4015 25.7895 52.9764 25.0362C52.9733 25.0307 52.9703 25.0253 52.9672 25.0198C50.6695 20.9652 45.848 18.8086 41.1371 20.0709C40.4811 20.2466 39.8564 20.4809 39.2671 20.7665C35.9815 22.359 33.7962 25.5485 33.423 29.102ZM43.4281 45.4741C41.6735 43.2852 38.8903 42.0661 36.0134 42.3565C35.6305 42.3951 35.246 42.4605 34.862 42.5539C34.7975 42.5696 34.733 42.586 34.6686 42.6033C31.693 43.4006 29.5182 45.6948 28.7374 48.4587C28.3387 49.8699 28.3034 51.4036 28.7105 52.923C28.843 53.4173 29.0168 53.8896 29.2271 54.337C30.9211 57.9395 34.988 59.9327 38.9692 58.8971C38.9895 58.8919 39.0098 58.8865 39.0302 58.881C40.4483 58.5011 41.6845 57.7811 42.6746 56.8323C44.8229 54.7738 45.8127 51.6382 44.9882 48.5614C44.6765 47.3981 44.136 46.3572 43.4281 45.4741ZM45.3202 35.6823C48.3509 34.8703 50.1494 31.7551 49.3373 28.7244C48.5253 25.6938 45.4101 23.8952 42.3794 24.7073C39.3488 25.5194 37.5502 28.6345 38.3623 31.6652C39.1744 34.6959 42.2895 36.4944 45.3202 35.6823ZM37.7878 54.2446C39.7222 53.7263 40.8701 51.738 40.3518 49.8037C39.8335 47.8694 37.8452 46.7215 35.9109 47.2398C33.9766 47.7581 32.8286 49.7463 33.347 51.6806C33.8653 53.615 35.8535 54.7629 37.7878 54.2446ZM24.016 37.9463C24.2699 38.8939 25.2439 39.4563 26.1916 39.2024C27.1392 38.9484 27.7016 37.9744 27.4477 37.0267C27.1937 36.0791 26.2197 35.5167 25.2721 35.7707C24.3244 36.0246 23.7621 36.9986 24.016 37.9463Z" fill="white"/>
</svg>
